<mxfile host="app.diagrams.net" modified="2023-08-11T06:40:09.970Z" agent="Mozilla/5.0 (Macintosh; Intel Mac OS X 10_15_7) AppleWebKit/537.36 (KHTML, like Gecko) Chrome/115.0.0.0 Safari/537.36" version="21.6.8" etag="l90_l_7gEKOR-9aL_r9f" type="github">
  <diagram name="第 1 页" id="eXvEuoDH9ntGDuJEDChX">
    <mxGraphModel>
      <root>
        <mxCell id="0" />
        <mxCell id="1" parent="0" />
      </root>
    </mxGraphModel>
  </diagram>
</mxfile>
